<?xml version="1.0" standalone="no"?>
<!DOCTYPE svg PUBLIC "-//W3C//DTD SVG 20010904//EN"
 "http://www.w3.org/TR/2001/REC-SVG-20010904/DTD/svg10.dtd">
<svg version="1.0" xmlns="http://www.w3.org/2000/svg"
 width="2000.000000pt" height="1654.000000pt" viewBox="0 0 2000.000000 1654.000000"
 preserveAspectRatio="xMidYMid meet">

<g transform="translate(0.000000,1654.000000) scale(0.100000,-0.100000)"
fill="#000000" stroke="none">
<path d="M150 8825 l0 -7665 265 0 265 0 0 7665 0 7665 -265 0 -265 0 0 -7665z"/>
<path d="M1230 12700 c0 -2084 2 -3790 4 -3790 18 0 61 83 85 166 43 145 80
226 156 349 74 120 92 145 207 283 l78 93 0 3345 0 3344 -265 0 -265 0 0
-3790z"/>
<path d="M2340 13439 l0 -3051 71 63 c104 93 235 205 333 285 l85 69 0 2843 1
2842 -245 0 -245 0 0 -3051z"/>
<path d="M3541 16038 c0 -449 1 -453 19 -413 10 22 19 46 19 53 1 7 11 16 24
21 39 14 218 40 330 47 l107 7 0 368 0 369 -250 0 -250 0 1 -452z"/>
<path d="M4800 16082 l0 -407 133 -34 c108 -27 233 -69 350 -116 16 -7 17 20
17 479 l0 486 -250 0 -250 0 0 -408z"/>
<path d="M5610 16198 c0 -189 4 -288 10 -278 8 13 62 15 365 18 l355 3 0 274
0 275 -365 0 -365 0 0 -292z"/>
<path d="M6840 16219 l0 -271 123 6 c266 15 495 37 555 53 l62 18 0 232 0 233
-370 0 -370 0 0 -271z"/>
<path d="M7910 16302 l0 -188 85 4 c80 4 348 -13 388 -24 16 -5 17 9 17 195
l0 201 -245 0 -245 0 0 -188z"/>
<path d="M9010 16173 l0 -316 77 -71 c42 -39 91 -94 110 -123 18 -29 37 -53
42 -53 4 0 34 9 66 20 62 21 222 28 267 11 13 -4 35 -11 51 -15 l27 -6 0 435
0 435 -320 0 -320 0 0 -317z"/>
<path d="M10230 15965 c0 -432 2 -525 13 -525 31 0 217 -101 282 -153 68 -55
72 -57 133 -57 l62 0 0 630 0 630 -245 0 -245 0 0 -525z"/>
<path d="M11690 15643 l0 -847 46 -95 c45 -93 72 -126 124 -155 32 -18 303
-86 341 -86 l29 0 0 1015 0 1015 -270 0 -270 0 0 -847z"/>
<path d="M12550 15383 l1 -1108 147 -117 c81 -64 206 -166 277 -227 72 -61
133 -111 138 -111 4 0 7 601 7 1335 l0 1335 -285 0 -285 0 0 -1107z"/>
<path d="M14090 14857 l0 -1632 63 -35 c107 -59 327 -210 424 -292 50 -43 94
-78 97 -78 4 0 6 826 6 1835 l0 1835 -295 0 -295 0 0 -1633z"/>
<path d="M15240 14329 l0 -2160 58 -68 c112 -130 179 -236 235 -371 64 -154
105 -338 128 -570 11 -116 29 -168 99 -282 l20 -33 0 2823 0 2822 -270 0 -270
0 0 -2161z"/>
<path d="M16330 9340 l0 -7150 260 0 260 0 0 7150 0 7150 -260 0 -260 0 0
-7150z"/>
<path d="M18435 16479 c-183 -25 -387 -104 -542 -211 -108 -74 -266 -234 -340
-345 -141 -211 -200 -398 -210 -658 -15 -384 112 -705 382 -971 179 -175 401
-293 642 -341 134 -26 386 -23 523 6 429 92 800 423 939 837 45 134 62 249 62
414 0 359 -111 637 -358 891 -184 190 -383 303 -633 360 -100 23 -357 33 -465
18z m405 -153 c223 -43 411 -146 580 -316 149 -150 247 -318 297 -508 49 -190
42 -458 -17 -642 -103 -318 -371 -597 -689 -717 -200 -75 -466 -88 -683 -33
-356 91 -670 384 -788 737 -111 333 -61 711 131 995 55 80 195 226 279 289
132 100 341 185 515 208 90 13 279 6 375 -13z"/>
<path d="M18140 15255 l0 -685 90 0 90 0 0 296 0 296 143 -3 c136 -4 147 -6
203 -34 49 -25 70 -45 124 -117 36 -48 111 -164 167 -260 l101 -173 112 -3
111 -3 -12 23 c-64 126 -185 323 -249 410 -64 85 -93 115 -141 144 l-61 38 70
16 c144 34 245 108 299 219 24 49 27 69 28 151 0 84 -3 102 -28 151 -33 69
-100 132 -172 165 -103 48 -163 54 -532 54 l-343 0 0 -685z m701 522 c76 -19
118 -45 154 -95 24 -35 30 -55 33 -110 4 -79 -21 -137 -80 -185 -58 -47 -126
-58 -390 -64 l-238 -6 0 243 0 243 233 -6 c149 -4 252 -11 288 -20z"/>
<path d="M7785 15769 l-55 -52 -198 -8 c-109 -4 -272 -12 -362 -18 -91 -6
-383 -13 -650 -17 -267 -4 -550 -9 -630 -13 l-145 -6 -17 -35 c-9 -19 -34 -91
-54 -160 -88 -296 -163 -321 -544 -180 -178 66 -217 76 -445 116 -55 9 -147
30 -205 46 -93 26 -126 30 -286 35 -199 6 -343 -2 -369 -21 -9 -6 -23 -39 -31
-71 -20 -80 -30 -396 -16 -505 23 -182 112 -409 215 -549 53 -73 187 -204 344
-338 363 -309 522 -456 604 -559 27 -34 49 -65 49 -69 0 -4 -22 -37 -49 -74
-27 -36 -65 -91 -84 -121 -50 -77 -185 -207 -371 -357 -88 -70 -180 -154 -205
-185 -25 -31 -82 -100 -127 -152 -45 -53 -91 -115 -102 -138 -79 -161 -191
-420 -197 -458 -25 -153 -137 -401 -338 -749 -101 -174 -170 -244 -649 -664
-192 -167 -754 -726 -863 -857 -90 -109 -234 -300 -307 -408 -42 -63 -54 -91
-79 -193 -54 -222 -89 -268 -272 -368 -151 -83 -183 -112 -191 -183 -14 -123
-26 -366 -21 -418 12 -107 27 -196 52 -305 26 -109 27 -110 113 -225 107 -142
358 -388 520 -509 126 -95 221 -148 320 -179 231 -74 669 -152 945 -167 126
-7 215 10 337 67 77 35 76 34 133 178 61 153 151 333 193 387 46 57 97 83 212
107 105 21 280 46 326 46 55 1 136 36 253 113 164 108 201 123 311 130 132 9
499 53 594 73 103 20 134 42 324 227 110 107 167 155 205 172 54 25 109 31
474 54 108 7 164 15 190 27 21 10 101 79 178 154 77 75 164 156 194 181 l55
44 345 0 c344 0 346 0 401 -24 205 -90 427 -275 459 -382 26 -87 103 -221 161
-280 l58 -59 95 0 95 0 63 -47 c96 -70 229 -213 282 -302 36 -61 51 -100 66
-172 11 -52 31 -141 45 -199 13 -58 30 -141 37 -185 15 -103 59 -195 187 -396
153 -242 199 -321 206 -359 3 -19 24 -59 46 -88 45 -59 344 -396 380 -427 12
-11 41 -45 63 -75 72 -97 300 -351 539 -599 128 -134 285 -299 348 -367 63
-68 353 -359 644 -646 l528 -522 19 25 c21 27 20 26 164 594 121 478 224 800
339 1062 80 184 109 238 289 545 162 275 314 554 527 968 100 195 194 375 208
400 38 65 1198 2391 1206 2418 5 13 3 22 -3 22 -10 0 -394 -213 -418 -232 -7
-6 -24 -35 -38 -65 -14 -30 -73 -130 -131 -220 -59 -91 -129 -207 -156 -259
-43 -81 -50 -104 -59 -186 -19 -172 -95 -429 -249 -848 -87 -235 -128 -307
-386 -682 -162 -234 -186 -277 -210 -374 -21 -82 -85 -197 -234 -419 -175
-260 -210 -310 -228 -316 -38 -14 -180 -32 -203 -26 -52 14 -53 19 -25 105 31
91 63 149 170 297 42 59 76 114 76 124 0 34 32 138 76 249 46 115 117 239 383
665 212 341 301 531 320 687 6 45 28 109 70 205 74 168 127 316 176 494 21 74
48 159 62 189 26 58 213 340 314 473 31 41 70 96 86 122 35 54 139 151 383
357 249 210 328 297 365 400 19 51 59 293 80 485 24 212 18 195 110 304 45 54
97 120 115 145 l32 48 -22 86 c-12 48 -49 170 -82 272 l-61 185 -104 122 c-72
85 -112 125 -131 129 -73 16 -130 35 -140 46 -5 7 -13 37 -17 65 -4 29 -23
103 -42 165 -19 62 -39 132 -45 156 l-10 42 -46 0 -47 0 -237 -427 c-130 -236
-255 -466 -278 -512 -23 -46 -104 -200 -180 -342 -76 -141 -140 -266 -142
-276 -2 -12 -39 -35 -107 -69 -56 -27 -106 -57 -111 -65 -4 -7 -13 -50 -19
-94 -7 -44 -23 -129 -36 -190 -13 -60 -27 -132 -31 -160 -3 -27 -12 -59 -19
-71 -12 -18 -83 -51 -236 -111 -47 -18 -77 -50 -257 -272 -82 -101 -99 -137
-131 -277 -16 -71 -34 -140 -40 -154 -5 -14 -114 -133 -241 -265 -128 -132
-244 -260 -258 -285 -45 -78 -137 -212 -236 -344 -110 -146 -137 -190 -170
-273 -13 -33 -82 -148 -155 -257 -72 -108 -143 -220 -157 -248 -15 -29 -41
-111 -60 -183 -87 -344 -78 -327 -234 -431 -53 -34 -105 -76 -116 -91 -11 -16
-27 -68 -38 -123 -40 -216 -24 -192 -165 -245 l-83 -32 -28 -109 c-15 -60 -47
-161 -70 -225 l-41 -116 -46 -7 c-79 -11 -160 -7 -172 8 -17 21 -65 168 -96
296 -32 135 -30 232 5 313 12 27 83 148 157 269 128 207 137 227 154 307 22
109 76 246 173 440 116 230 166 348 183 431 29 139 88 234 349 555 99 121 199
247 223 281 43 57 49 62 169 114 119 53 126 57 140 95 24 62 119 240 178 335
105 170 216 281 531 533 202 162 269 229 307 311 52 108 110 286 156 472 51
203 93 292 277 575 66 101 125 194 132 206 6 12 58 54 114 93 l103 71 89 156
c99 175 134 253 135 300 0 28 16 48 118 147 87 85 122 127 136 162 l19 47 -24
19 c-83 66 -483 308 -509 308 -4 0 -15 -18 -25 -40 -10 -22 -67 -129 -127
-238 -169 -306 -305 -584 -334 -680 -14 -48 -32 -101 -39 -118 -8 -18 -145
-193 -306 -390 -160 -196 -298 -374 -306 -393 -10 -23 -110 -130 -283 -301
-198 -196 -280 -284 -316 -340 -74 -117 -345 -420 -469 -527 l-70 -60 -170
-36 c-188 -40 -342 -62 -512 -72 l-112 -7 -12 -37 c-6 -20 -42 -112 -79 -206
-73 -183 -112 -309 -131 -420 -15 -87 -27 -112 -146 -288 -96 -142 -163 -265
-163 -300 0 -27 -56 -242 -85 -327 -31 -92 -60 -217 -75 -330 -6 -47 -29 -138
-50 -202 -86 -259 -85 -329 10 -543 55 -121 59 -139 75 -265 9 -74 25 -181 36
-237 18 -97 49 -328 49 -365 0 -25 -58 -38 -171 -38 -91 0 -96 1 -121 28 -65
69 -121 228 -138 392 -14 143 -30 510 -30 710 0 172 -16 380 -51 660 -11 91
-21 224 -22 295 -1 163 4 184 162 591 65 170 127 345 136 389 24 111 54 166
233 429 174 256 189 284 227 421 14 54 72 201 129 329 110 247 146 338 171
428 18 66 73 143 246 343 135 157 245 318 265 388 21 70 112 355 126 389 11
30 46 53 218 148 183 100 190 107 255 220 79 137 134 270 151 360 21 112 42
177 80 249 44 87 52 96 99 111 100 31 286 162 347 242 31 41 53 99 62 159 7
45 9 48 101 110 52 35 95 67 95 71 0 7 -200 155 -305 225 -176 118 -328 191
-548 263 -135 44 -214 85 -246 127 -12 15 -66 88 -121 162 -98 133 -102 136
-219 213 -106 70 -127 79 -197 93 -111 20 -278 42 -424 55 -69 6 -134 17 -145
24 -11 8 -54 44 -95 80 -41 37 -101 85 -134 107 l-58 39 -170 0 c-192 0 -176
-5 -333 99 l-100 66 -95 -1 c-82 -1 -110 -6 -202 -37 -59 -20 -118 -37 -131
-37 -43 0 -100 64 -202 229 l-100 160 -75 35 c-143 65 -283 90 -587 106 -334
17 -315 19 -378 -41z m-3035 -544 c160 -26 365 -92 442 -141 86 -55 133 -79
182 -92 34 -10 43 -8 92 19 l54 31 47 -18 c36 -14 82 -52 183 -149 159 -155
210 -192 282 -205 29 -6 96 -27 148 -47 86 -33 103 -44 187 -123 118 -111 192
-152 287 -157 100 -6 136 15 263 157 106 119 148 151 225 171 43 12 49 11 69
-7 31 -28 45 -59 64 -148 20 -92 17 -218 -7 -242 -8 -8 -30 -23 -49 -32 l-34
-17 -3 -98 c-3 -110 18 -255 42 -292 18 -27 84 -65 114 -65 55 0 96 114 97
267 l0 103 -52 46 c-50 43 -53 48 -53 92 0 65 16 117 58 187 88 149 148 220
194 230 40 9 93 -11 123 -46 39 -47 34 -111 -17 -256 -41 -112 -43 -124 -42
-223 0 -69 8 -139 22 -202 26 -116 28 -214 6 -289 -20 -66 -43 -101 -109 -159
-106 -95 -197 -186 -217 -218 -32 -52 -39 -94 -43 -272 l-4 -165 -42 -85 c-50
-101 -138 -197 -166 -182 -9 6 -35 36 -58 68 -56 80 -79 80 -119 2 -36 -74
-31 -105 30 -184 63 -80 74 -110 74 -202 0 -88 -34 -242 -69 -310 -31 -60 -79
-112 -105 -112 -24 0 -55 29 -76 69 -14 27 -8 98 15 188 15 57 20 169 9 208
-6 23 -68 69 -104 78 -39 9 -88 -25 -111 -79 -51 -114 -22 -503 46 -619 48
-82 87 -106 213 -130 97 -19 134 -43 161 -104 52 -121 68 -279 35 -344 -9 -18
-68 -108 -130 -200 -63 -92 -128 -195 -145 -229 -31 -61 -31 -61 -27 -202 3
-135 4 -143 33 -195 16 -29 47 -73 68 -97 51 -58 67 -114 67 -238 1 -148 36
-209 148 -257 93 -40 154 -12 168 76 10 69 -4 92 -106 174 -55 44 -99 88 -104
103 -7 20 -4 50 13 115 44 171 47 229 21 408 -24 159 -30 276 -20 338 l11 63
137 80 c169 98 168 98 215 84 44 -13 54 -33 69 -134 11 -77 0 -209 -33 -391
-10 -60 -23 -166 -29 -234 -8 -113 -6 -141 20 -330 17 -113 30 -235 29 -271 0
-107 -12 -127 -112 -195 -49 -33 -94 -69 -100 -80 -7 -12 -11 -91 -12 -205 -2
-206 -5 -220 -65 -262 -50 -37 -72 -35 -152 10 -87 48 -166 117 -238 208 -50
62 -59 81 -69 137 -6 35 -11 103 -11 151 0 137 -18 184 -97 253 -183 161 -181
159 -203 258 -25 115 -25 234 0 400 11 72 20 134 20 138 0 4 31 41 69 81 39
41 76 89 84 107 22 53 64 232 86 364 41 250 38 285 -26 347 -96 92 -196 97
-256 14 -21 -30 -22 -38 -23 -306 l-1 -275 -33 -65 c-18 -36 -52 -95 -76 -132
-48 -75 -57 -100 -84 -246 -23 -122 -19 -140 43 -177 25 -14 47 -35 50 -48 3
-12 9 -92 13 -177 5 -123 12 -171 31 -230 40 -126 113 -265 273 -526 220 -356
223 -363 224 -471 0 -128 -29 -176 -155 -251 -53 -32 -166 -49 -218 -33 -53
15 -105 61 -124 109 -25 63 -46 219 -57 417 -10 196 -26 285 -60 340 -11 17
-51 51 -90 75 -89 56 -130 115 -176 252 -45 133 -68 265 -60 343 3 33 11 112
16 175 15 162 77 577 102 689 14 60 34 114 56 150 81 133 181 445 166 515 -41
191 -258 279 -320 130 -36 -86 -54 -216 -54 -389 0 -199 -12 -252 -85 -370
-94 -151 -101 -205 -51 -395 43 -164 50 -255 22 -276 -30 -21 -81 -27 -121
-14 -72 24 -121 85 -146 184 -12 48 -4 97 36 222 17 51 5 211 -25 328 -41 160
-126 290 -226 343 -109 58 -182 54 -210 -13 -14 -34 -14 -46 10 -163 15 -69
26 -139 26 -156 0 -78 -82 -217 -161 -275 -22 -16 -75 -42 -117 -59 -144 -58
-160 -69 -237 -167 -90 -113 -135 -151 -306 -266 -193 -129 -295 -176 -408
-191 l-91 -11 -53 52 c-29 29 -60 52 -69 52 -8 0 -32 -20 -52 -45 -32 -39 -41
-44 -64 -39 -75 18 -169 88 -159 118 8 23 66 46 154 60 98 16 148 37 258 111
124 84 147 92 275 98 131 6 195 24 336 93 99 48 166 100 189 145 10 18 15 58
15 117 0 97 11 122 84 202 18 19 50 57 70 85 35 46 37 53 30 100 -3 27 -13 67
-21 89 l-14 40 139 136 139 135 22 101 c28 124 48 159 107 185 78 35 115 11
288 -186 88 -100 125 -125 205 -136 44 -6 61 -4 92 12 147 75 212 269 158 474
-24 89 -71 195 -86 195 -9 0 -37 -20 -63 -44 -44 -41 -51 -44 -135 -56 -112
-16 -254 -7 -332 19 -65 23 -127 81 -162 154 -39 80 -67 359 -40 408 11 22
100 64 154 75 47 8 66 0 140 -61 78 -63 108 -70 350 -80 254 -10 353 -33 431
-98 127 -107 197 -130 248 -84 14 12 63 98 110 190 105 206 109 232 45 302
-48 51 -153 124 -217 148 -63 25 -103 21 -165 -14 -64 -37 -104 -92 -112 -158
-16 -117 -43 -148 -125 -138 -27 3 -60 13 -74 22 -32 21 -68 119 -64 176 3 40
7 46 47 68 24 13 62 28 85 32 131 24 210 81 246 176 34 89 26 174 -27 283 -48
101 -79 133 -159 162 -92 33 -196 35 -341 5 -171 -35 -193 -47 -215 -121 -9
-32 -21 -63 -27 -69 -6 -6 -35 -9 -64 -8 l-54 2 -42 -55 c-23 -30 -49 -57 -57
-60 -39 -15 -155 84 -244 209 -63 88 -88 113 -276 271 -95 79 -245 220 -335
312 -143 147 -170 180 -211 258 -56 106 -81 193 -73 249 9 60 44 165 71 211
57 100 192 186 359 230 106 27 194 30 325 9z m4467 -272 c34 -37 63 -100 63
-141 0 -40 -55 -181 -101 -258 -36 -59 -97 -124 -128 -136 -58 -21 -110 76
-110 207 -1 150 33 241 112 301 83 64 122 71 164 27z m-742 -56 c46 -46 62
-125 46 -227 -15 -96 -28 -115 -96 -134 -45 -14 -56 -21 -61 -43 -4 -15 -4
-109 -1 -211 7 -202 7 -201 -55 -288 l-29 -41 30 -122 c23 -95 27 -129 20
-155 -5 -19 -43 -84 -84 -145 -78 -117 -101 -173 -91 -230 8 -50 25 -64 62
-51 68 26 146 135 258 358 58 116 69 146 85 240 26 156 78 240 180 295 l50 28
51 -22 c63 -27 82 -54 105 -146 16 -70 16 -74 -2 -110 -11 -23 -40 -53 -77
-79 -79 -55 -91 -80 -80 -163 5 -36 9 -129 9 -206 0 -110 -4 -152 -18 -195
-27 -80 -96 -179 -194 -281 -100 -104 -147 -130 -359 -202 -162 -56 -204 -77
-252 -126 -68 -72 -313 -501 -422 -740 -59 -129 -62 -140 -71 -249 -11 -126
-25 -164 -70 -191 l-31 -19 -123 50 -124 50 -10 51 c-11 56 -16 130 -13 190 2
33 7 40 52 68 29 18 52 40 55 52 11 50 25 147 31 217 8 85 28 144 109 315 58
123 135 300 199 460 23 56 46 142 62 225 13 74 29 159 35 188 6 29 41 115 78
190 78 158 105 231 121 328 33 203 151 549 202 591 7 6 43 23 80 38 37 15 72
33 79 41 7 9 13 49 13 98 1 74 5 90 38 157 41 82 128 179 160 179 11 0 35 -15
53 -33z m1520 -79 c39 -19 124 -118 134 -155 15 -54 13 -100 -5 -128 -9 -14
-47 -48 -85 -76 -38 -28 -85 -70 -105 -93 -39 -45 -39 -48 -18 -234 6 -50 3
-60 -45 -152 -28 -55 -74 -137 -103 -182 -142 -226 -180 -309 -199 -431 -5
-34 -19 -83 -30 -109 -19 -40 -28 -49 -73 -66 -44 -16 -57 -28 -93 -83 -49
-73 -95 -193 -125 -322 -17 -74 -28 -99 -75 -164 -145 -202 -354 -423 -645
-679 -218 -192 -297 -279 -323 -351 -26 -74 -25 -74 -136 -150 -141 -98 -151
-116 -157 -301 -3 -96 3 -205 18 -362 29 -291 25 -380 -25 -555 -44 -156 -52
-227 -36 -344 11 -75 10 -94 -3 -125 -21 -50 -64 -104 -96 -121 -65 -33 -140
56 -140 165 1 66 11 86 73 140 26 23 47 46 47 50 0 5 -21 35 -47 67 -45 56
-47 59 -54 147 -4 50 -13 294 -19 541 -8 331 -15 463 -25 501 -8 28 -21 83
-30 123 -14 68 -14 75 6 134 62 186 284 501 447 634 117 96 127 108 148 176
29 93 73 126 232 176 121 38 134 45 170 86 21 24 44 63 51 87 7 24 28 75 47
115 33 70 36 72 116 116 127 69 125 66 160 273 35 209 64 278 177 426 304 398
285 363 368 687 38 152 76 277 93 312 35 68 141 177 213 220 47 27 57 29 112
23 33 -3 69 -11 80 -16z m854 -236 c91 -116 112 -323 47 -483 -44 -109 -141
-271 -214 -358 -40 -47 -131 -142 -201 -211 -126 -122 -130 -128 -184 -240
-100 -210 -156 -355 -208 -540 -29 -105 -38 -123 -104 -215 -40 -55 -123 -158
-184 -230 -189 -222 -349 -422 -356 -446 -12 -37 -32 -58 -171 -185 -232 -211
-368 -342 -422 -406 -72 -85 -262 -380 -322 -499 -47 -92 -50 -104 -90 -340
-34 -197 -43 -284 -51 -454 -5 -115 -23 -374 -39 -575 -17 -201 -33 -448 -37
-548 l-6 -184 -33 -15 c-64 -31 -74 -20 -127 145 -26 81 -53 181 -59 222 -12
86 -5 275 17 490 8 80 15 219 15 310 0 124 9 236 34 450 52 432 118 672 249
915 74 137 128 206 287 370 267 276 368 389 419 468 28 43 160 252 292 465
272 435 378 598 533 822 59 85 151 227 204 315 90 149 348 551 502 780 69 102
159 215 171 215 4 0 21 -17 38 -38z m931 -517 c20 -59 20 -71 10 -142 -7 -44
-27 -113 -47 -158 -80 -185 -350 -552 -450 -614 -83 -51 -230 -296 -430 -715
-151 -319 -167 -347 -341 -613 -171 -262 -202 -315 -233 -398 -30 -83 -158
-264 -399 -564 -284 -354 -326 -409 -417 -546 -90 -136 -113 -177 -138 -253
-11 -35 -40 -82 -84 -135 -87 -106 -225 -312 -265 -396 l-31 -66 -3 -562 -3
-562 -31 -26 c-38 -32 -89 -59 -144 -75 -36 -11 -51 -10 -119 11 -42 12 -95
35 -117 51 -38 28 -39 31 -33 71 4 23 19 89 35 147 16 58 34 132 40 165 7 33
28 99 46 148 l34 89 1 421 c0 463 5 515 56 627 39 85 203 353 287 469 98 135
149 218 211 342 60 119 175 278 356 489 212 249 330 403 366 480 19 41 46 98
59 126 36 77 88 154 303 449 277 379 327 460 360 580 14 48 39 89 127 205 199
264 367 527 380 595 8 46 73 104 256 231 116 81 308 193 330 194 3 0 16 -29
28 -65z m-7423 -1869 c82 -62 109 -73 212 -92 100 -18 131 -40 131 -93 0 -44
-111 -131 -166 -131 -9 0 -74 14 -145 31 -195 47 -232 85 -209 217 21 123 75
144 177 68z m10597 -607 c10 -9 11 -9 -103 -269 -79 -180 -82 -187 -97 -315
-21 -175 -116 -630 -151 -730 -69 -189 -255 -389 -749 -803 -119 -100 -115
-94 -174 -257 -18 -49 -89 -202 -157 -339 -139 -277 -241 -500 -273 -597 -12
-35 -31 -111 -42 -169 -26 -138 -40 -171 -224 -517 -154 -291 -191 -375 -214
-490 -16 -76 -20 -84 -171 -315 -156 -239 -173 -273 -198 -380 -10 -46 -31
-117 -46 -158 -15 -41 -35 -114 -45 -163 -25 -121 -16 -149 85 -257 101 -108
106 -123 78 -223 -19 -70 -55 -109 -130 -142 -49 -22 -53 -26 -53 -58 0 -62
-164 -462 -275 -673 -74 -138 -76 -141 -211 -180 -81 -23 -107 -14 -198 69
l-79 73 38 159 c21 88 44 171 53 185 35 58 108 131 202 206 79 63 101 85 105
109 39 256 67 448 74 523 7 69 16 104 35 138 89 153 80 122 84 306 l4 167 67
35 c37 19 75 44 86 56 18 20 18 22 -4 73 -47 106 -46 95 -16 202 35 122 152
435 228 605 171 387 271 649 293 765 4 23 22 49 55 80 58 54 229 252 229 265
0 28 34 254 56 369 69 366 109 487 211 633 62 90 231 289 467 549 336 371 401
468 638 945 85 170 178 346 206 391 50 77 54 81 122 108 106 43 166 50 194 24z
m-10605 -238 c41 -11 63 -66 59 -147 -4 -94 -62 -213 -143 -297 -81 -83 -121
-100 -216 -95 -151 9 -239 82 -239 198 0 74 17 114 70 168 58 59 182 139 254
164 51 17 167 23 215 9z m890 -566 c50 -43 63 -103 59 -273 -3 -135 -5 -152
-30 -205 -29 -62 -45 -72 -183 -122 -97 -36 -105 -58 -84 -225 27 -221 105
-459 192 -589 61 -92 92 -160 122 -276 46 -172 57 -369 30 -509 -26 -138 -122
-288 -209 -330 -46 -21 -73 -20 -120 7 -64 36 -92 99 -117 262 -19 123 -21
176 -20 430 3 326 -1 354 -75 551 -69 186 -191 400 -239 422 -36 17 -120 15
-134 -2 -6 -8 -17 -52 -23 -99 -15 -108 -1 -236 33 -304 21 -42 33 -52 104
-89 93 -47 117 -76 134 -162 17 -90 32 -281 26 -332 -13 -96 -15 -101 -53
-117 -80 -33 -216 19 -277 106 -28 40 -30 50 -35 159 -5 111 -7 119 -37 162
-38 55 -216 229 -338 332 -102 85 -160 146 -170 177 -14 46 85 153 188 204
l57 28 157 -7 c191 -8 198 -5 213 91 17 104 40 122 235 181 100 30 128 43 171
79 57 49 65 66 124 254 50 155 71 186 145 206 79 21 119 19 154 -10z m174
-601 c48 -8 125 -81 196 -188 92 -137 103 -168 111 -335 4 -80 12 -158 18
-172 6 -14 40 -52 77 -84 36 -32 72 -70 80 -84 15 -29 48 -231 66 -396 7 -66
9 -182 6 -289 -5 -171 -6 -180 -29 -202 -28 -29 -102 -44 -159 -34 -53 10
-129 83 -170 163 -70 137 -123 342 -144 557 -18 186 -37 292 -60 326 -8 13
-48 63 -89 111 -87 104 -106 151 -106 261 0 118 34 300 62 330 37 40 68 48
141 36z m-2034 -430 c95 -48 111 -73 111 -179 0 -126 16 -137 205 -150 123 -7
168 -27 281 -124 162 -138 254 -274 254 -373 0 -33 7 -67 19 -88 16 -30 27
-38 88 -55 112 -32 112 -32 124 -164 12 -132 7 -174 -24 -196 -27 -19 -107
-20 -150 -1 -18 7 -58 41 -90 75 -48 50 -73 91 -142 234 -46 94 -93 184 -105
199 -27 35 -151 128 -208 157 -32 16 -74 25 -158 31 -127 11 -174 26 -200 64
-16 25 -16 30 4 99 49 169 42 187 -75 187 -70 0 -75 1 -114 37 -48 43 -89 119
-89 164 0 24 10 41 40 70 64 61 127 64 229 13z m4247 -382 c6 -4 24 -28 42
-53 33 -50 65 -72 177 -129 l70 -35 3 -61 c3 -54 0 -66 -22 -90 l-24 -29 -124
1 c-107 0 -128 3 -166 22 -24 13 -45 29 -48 36 -3 7 11 42 30 78 20 36 36 72
36 81 0 9 -16 28 -35 43 -19 14 -35 34 -35 44 0 19 24 81 36 93 9 9 46 9 60
-1z m-5001 -164 c55 1 143 10 195 21 60 12 103 16 117 10 12 -4 47 -44 78 -88
90 -129 112 -142 275 -161 186 -22 193 -24 345 -127 77 -53 152 -109 168 -127
94 -106 157 -222 157 -287 0 -59 -78 -109 -173 -109 -69 0 -141 63 -266 232
-78 106 -69 101 -211 118 -78 9 -87 13 -123 47 -21 21 -49 57 -62 80 -14 22
-46 60 -72 83 -48 42 -48 42 -108 35 -110 -12 -209 -37 -269 -67 -81 -41 -144
-46 -226 -18 -85 28 -106 42 -140 97 -77 121 -75 183 10 246 73 54 86 57 150
34 43 -15 77 -20 155 -19z m90 -583 c176 -1 279 -4 295 -12 32 -13 97 -85 111
-120 7 -20 5 -32 -12 -59 -37 -61 -64 -71 -250 -103 -343 -59 -579 -65 -715
-19 -59 20 -73 29 -102 71 -43 60 -51 111 -24 163 11 21 29 47 40 58 31 27
111 36 257 28 72 -4 252 -7 400 -7z m-109 -408 c33 -18 101 -109 109 -145 9
-41 -21 -91 -77 -130 l-40 -28 -177 29 c-183 30 -200 36 -227 89 -24 45 -17
69 33 120 51 52 72 57 125 33 31 -15 38 -14 128 13 115 36 101 34 126 19z
m2054 3 c93 -21 136 -48 184 -119 24 -36 47 -80 51 -98 8 -41 -10 -105 -40
-141 -55 -66 -312 -63 -425 5 -30 18 -64 33 -75 33 -11 -1 -54 -14 -95 -31
-117 -48 -307 -73 -343 -46 -20 15 -47 89 -47 128 0 58 32 73 188 87 l84 8 34
-42 c30 -37 41 -43 82 -46 67 -6 94 11 151 100 28 42 69 96 93 119 55 53 80
60 158 43z m-1591 -124 c15 -8 46 -30 69 -49 22 -19 82 -56 132 -82 148 -76
157 -94 83 -177 -74 -84 -90 -91 -207 -86 -114 5 -206 34 -232 72 -20 32 -46
163 -38 198 8 40 61 97 109 119 49 22 49 23 84 5z m8837 -1287 c9 -27 7 -65
-7 -178 -18 -136 -22 -149 -66 -230 -25 -47 -71 -133 -101 -191 -60 -115 -71
-130 -191 -270 -45 -52 -93 -119 -108 -148 -26 -53 -26 -55 -20 -216 3 -89 2
-221 -3 -292 -8 -122 -43 -320 -59 -337 -4 -4 -18 39 -31 95 -13 57 -33 132
-45 167 l-21 64 -164 89 c-90 49 -168 94 -172 101 -35 53 -97 322 -101 429 -2
75 14 92 163 168 107 54 118 62 136 102 10 23 37 70 58 103 21 33 49 82 62
109 29 64 130 191 208 263 51 47 88 70 202 121 140 63 220 93 239 88 6 -1 15
-18 21 -37z"/>
<path d="M3540 13211 c0 -734 2 -1332 4 -1330 2 2 43 101 91 219 117 291 250
532 364 662 l41 46 0 537 0 536 -113 122 c-183 198 -251 289 -344 462 l-43 80
0 -1334z"/>
<path d="M12726 13678 c-9 -24 -37 -112 -62 -197 -25 -84 -51 -168 -58 -185
-7 -17 -55 -78 -107 -136 -108 -119 -128 -149 -162 -240 -13 -36 -47 -117 -74
-180 -28 -63 -56 -140 -63 -170 -9 -36 -26 -71 -51 -101 -33 -40 -89 -136 -89
-153 0 -3 -14 -27 -30 -53 -17 -26 -42 -85 -56 -131 -25 -83 -26 -83 -99 -137
-40 -30 -114 -99 -165 -154 -61 -65 -102 -101 -120 -104 -26 -6 -27 -9 -32
-79 -5 -72 -27 -135 -51 -143 -7 -2 -30 -9 -52 -14 -35 -9 -44 -18 -63 -57
-13 -25 -35 -96 -51 -158 -45 -174 -49 -180 -128 -217 -52 -23 -79 -44 -116
-87 -26 -31 -74 -88 -106 -125 -80 -92 -157 -268 -173 -395 -11 -93 -6 -210
11 -254 9 -25 16 -28 53 -28 60 0 91 22 242 173 175 175 379 357 441 393 28
16 93 61 146 101 88 64 99 77 117 125 10 29 25 82 31 118 16 84 31 110 121
219 174 209 195 238 211 298 8 32 32 94 53 138 21 45 40 103 43 133 6 52 8 55
99 140 148 140 388 481 478 682 21 46 174 250 188 250 5 0 47 11 92 25 80 24
82 26 115 81 18 31 56 86 83 122 28 36 45 68 39 70 -19 6 -194 133 -251 181
-63 54 -374 291 -382 291 -3 0 -13 -19 -22 -42z"/>
<path d="M15387 10739 c-3 -19 -24 -124 -47 -234 -36 -175 -42 -224 -49 -389
l-7 -189 -30 -24 c-16 -14 -74 -54 -129 -91 -55 -36 -104 -70 -108 -76 -4 -6
-6 -39 -4 -72 6 -81 58 -164 118 -188 57 -23 67 -51 45 -129 -10 -34 -30 -84
-46 -112 -36 -63 -153 -326 -147 -331 10 -10 335 389 389 479 5 7 42 89 84
182 57 129 86 181 119 215 46 49 110 140 144 207 11 23 35 58 51 77 17 18 30
41 30 49 0 26 -115 246 -176 337 -31 47 -83 113 -115 148 -33 35 -72 88 -87
119 l-29 56 -6 -34z"/>
<path d="M15750 9468 c-87 -157 -174 -279 -257 -359 -84 -80 -115 -105 -210
-163 l-43 -26 0 -3365 0 -3365 270 0 270 0 0 3660 c0 2013 -1 3660 -3 3660 -2
0 -14 -19 -27 -42z"/>
<path d="M14589 8198 c-45 -84 -142 -253 -216 -376 -73 -122 -167 -283 -208
-356 l-75 -134 0 -2191 0 -2191 295 0 295 0 0 2700 c0 1485 -2 2700 -4 2700
-3 0 -42 -69 -87 -152z"/>
<path d="M7157 8288 c-49 -77 -177 -192 -253 -228 l-64 -31 0 -2540 0 -2539
370 0 370 0 0 2695 0 2695 -195 0 -194 0 -34 -52z"/>
<path d="M7910 5558 l0 -2608 245 0 245 0 0 2338 0 2338 -36 18 c-83 39 -178
137 -298 306 -64 91 -125 176 -136 190 -19 25 -20 9 -20 -2582z"/>
<path d="M6187 7913 l-88 -4 -126 -105 c-125 -106 -271 -208 -331 -233 l-32
-13 0 -2294 0 -2294 365 0 365 0 0 2475 0 2475 -32 -2 c-18 -1 -73 -4 -121 -5z"/>
<path d="M5095 7434 c-88 -13 -189 -29 -225 -37 l-65 -13 -3 -2217 -2 -2217
250 0 250 0 0 2255 0 2255 -22 -1 c-13 0 -95 -11 -183 -25z"/>
<path d="M1230 4151 l0 -2991 265 0 265 0 0 2768 0 2767 -78 50 c-120 78 -261
195 -361 301 l-91 96 0 -2991z"/>
<path d="M3988 7043 c-53 -56 -56 -60 -164 -302 -91 -204 -82 -194 -209 -241
l-70 -26 -3 -1762 -2 -1762 250 0 250 0 0 2070 c0 1139 -1 2070 -3 2070 -1 0
-23 -21 -49 -47z"/>
<path d="M9010 4770 l0 -1800 320 0 320 0 0 1334 c0 1204 -2 1335 -16 1347
-27 22 -166 207 -289 384 -106 153 -248 383 -304 494 -12 22 -24 41 -26 41 -3
0 -5 -810 -5 -1800z"/>
<path d="M2340 4730 l0 -1780 245 0 245 0 0 1743 0 1743 -77 12 c-43 6 -150
23 -237 37 -88 14 -163 25 -168 25 -4 0 -8 -801 -8 -1780z"/>
<path d="M13096 5398 c-182 -291 -311 -576 -453 -1001 l-88 -262 -3 -592 -3
-593 286 0 285 0 0 1235 c0 679 -2 1235 -5 1235 -2 0 -11 -10 -19 -22z"/>
<path d="M10230 3974 l0 -1024 245 0 245 0 0 773 0 772 -86 85 c-47 47 -157
160 -245 252 l-159 167 0 -1025z"/>
<path d="M11690 3224 l0 -274 270 0 270 0 0 116 c0 63 -3 113 -8 110 -4 -2
-21 -36 -37 -75 -17 -39 -33 -71 -36 -71 -3 0 -43 39 -89 88 -47 48 -149 153
-227 234 l-143 147 0 -275z"/>
<path d="M2340 1265 l0 -1235 1478 2 1477 3 3 1233 2 1232 -250 0 -250 0 0
-1030 0 -1030 -380 0 -380 0 0 1030 0 1030 -250 0 -250 0 0 -1030 0 -1030
-352 2 -353 3 -3 1028 -2 1027 -245 0 -245 0 0 -1235z"/>
<path d="M5610 2295 l0 -205 365 0 365 0 2 -1027 3 -1028 245 0 245 0 3 1028
2 1027 370 0 370 0 0 205 0 205 -985 0 -985 0 0 -205z"/>
<path d="M7892 1268 l3 -1233 248 -3 247 -2 0 463 0 464 318 6 c440 8 550 24
693 98 41 22 102 61 135 87 83 67 172 201 210 317 28 86 29 97 29 275 0 166
-2 193 -23 260 -84 267 -279 437 -552 481 -50 8 -283 13 -693 16 l-617 5 2
-1234z m1137 788 c101 -33 173 -94 213 -181 19 -40 23 -67 23 -140 0 -112 -25
-173 -96 -240 -98 -91 -178 -108 -529 -109 l-245 -1 -3 348 -2 349 292 -4
c244 -4 302 -8 347 -22z"/>
<path d="M10230 1265 l0 -1235 258 0 257 0 493 787 492 787 0 -787 0 -787 248
2 247 3 3 1233 2 1232 -271 -2 -271 -3 -482 -786 -481 -787 -3 789 -2 789
-245 0 -245 0 0 -1235z"/>
<path d="M12550 2496 c0 -2 170 -264 377 -582 207 -319 377 -586 377 -594 0
-8 -190 -300 -422 -647 -232 -348 -422 -635 -422 -638 0 -3 130 -5 289 -5
l289 0 285 432 285 432 131 -200 c71 -109 197 -302 279 -429 l150 -230 297 -3
c297 -2 298 -2 284 18 -8 11 -203 301 -433 645 l-419 626 389 582 c214 320
391 585 392 590 2 4 -131 7 -295 7 l-298 -1 -235 -374 c-129 -206 -238 -375
-242 -375 -3 0 -116 169 -250 375 l-243 375 -282 0 c-156 0 -283 -2 -283 -4z"/>
<path d="M17430 1265 l0 -1235 233 2 232 3 11 950 c6 523 11 948 13 945 1 -3
112 -430 245 -950 l243 -945 224 0 224 0 252 955 252 955 2 -260 c1 -143 5
-573 8 -955 l6 -695 233 -3 232 -2 0 1235 0 1235 -385 0 c-212 0 -385 -2 -385
-5 0 -9 -432 -1670 -435 -1673 -4 -4 17 -79 -235 838 -121 443 -223 813 -226
823 -5 16 -32 17 -375 17 l-369 0 0 -1235z"/>
<path d="M15210 1445 l0 -275 810 0 810 0 0 275 0 275 -810 0 -810 0 0 -275z"/>
</g>
</svg>
